<svg id="Layer_1" enable-background="new 0 0 511.678 511.678" height="512" viewBox="0 0 511.678 511.678" width="512" xmlns="http://www.w3.org/2000/svg"><g><path d="m335.823 290.819s9.558 74.706-63.673 93.475c-70.504 18.07-103.692 46.769-69.846 73.846 0 0-47.795 11.897-47.795-43.897 0-26.256 18.7-30.583 31.59-53.744 15.012-26.974-13.949-41.846-10.391-69.68z" fill="#2ed1e2"/><path d="m335.823 290.819s-12.261 0-30 0c0 0 9.558 74.706-63.673 93.475-54.782 14.041-87.027 34.499-82.809 55.626 12.137 25.885 42.963 18.22 42.963 18.22-33.846-27.077-.658-55.776 69.846-73.846 73.231-18.769 63.673-93.475 63.673-93.475z" fill="#02c7dd"/><path d="m423.266 301.834c0 14.91-6.214 24.12-20.975 26.31-23.747 3.53-33.064-11.4-33.064-26.31 0-4.35 1.031-9.16 2.852-13.8 1.161-2.93 1.081-6.2-.36-9-3.783-7.36-8.816-17.85-13.62-30.03-4.933-12.51-9.637-26.81-12.489-41.35-1.781-9-2.852-18.1-2.832-26.91 0 0 0 0-.01.01-.21.63-6.945 21.02-6.945 70.81h-160.115c0-50.58-6.955-70.82-6.955-70.82.07 36.89-18.864 78.68-28.941 98.29-1.441 2.8-1.521 6.07-.36 9.01 1.821 4.63 2.852 9.44 2.852 13.79 0 14.91-6.224 24.12-20.985 26.31-23.747 3.53-33.054-11.4-33.054-26.31 0-7.25 2.862-15.79 7.515-22.65 1.551-2.29 2.192-5.08 1.731-7.81-14.941-88.92 9.647-132.37 16.152-151.16 12.729-36.74 19.424-64.75 142.102-64.75s129.373 28.01 142.102 64.75c6.505 18.79 31.092 62.24 16.152 151.16-.461 2.73.18 5.52 1.731 7.81 4.654 6.86 7.516 15.4 7.516 22.65z" fill="#fe646f"/><g fill="#fd4755"><path d="m342.768 180.754c-.21.63-6.945 21.02-6.945 70.81h-32.103l10.127-57.22c21.486-5.44 28.701-13.35 28.921-13.59z"/><g><path d="m123.799 261.715c-9.545 20.923-11.516 35.77-11.516 40.119 0 11.315-3.596 19.338-11.776 23.51 5.106 2.862 11.953 4.116 20.812 2.799 14.761-2.19 20.985-11.4 20.985-26.31 0-4.35-1.031-9.16-2.852-13.79-1.161-2.94-1.081-6.21.36-9.01 10.077-19.61 29.011-61.4 28.941-98.29l-8.032-14.669c-14.855 21.385-22.865 64.828-36.922 95.641z"/><path d="m415.755 279.187c-1.554-2.292-2.196-5.086-1.737-7.817 14.938-88.921-9.645-132.37-16.151-151.157-12.729-36.74-19.424-64.75-142.102-64.75-5.216 0-10.205.055-15.011.154 108.231 2.247 114.903 29.418 127.091 64.596 6.506 18.787 31.089 62.235 16.151 151.157-.459 2.73.183 5.524 1.737 7.817 4.65 6.861 7.51 15.397 7.51 22.647 0 11.316-3.591 19.338-11.768 23.511 5.108 2.862 11.956 4.116 20.815 2.799 14.761-2.19 20.975-11.4 20.975-26.31.001-7.25-2.859-15.786-7.51-22.647z"/></g><path d="m255.766 111.063c-23.106 0-41.837-18.731-41.837-41.837v-20.21c0-23.106 18.731-41.837 41.837-41.837 23.106 0 41.837 18.731 41.837 41.837v20.21c0 23.106-18.731 41.837-41.837 41.837z"/></g><path d="m255.766 7.178c-5.288 0-10.342.991-15 2.781 15.694 6.031 26.837 21.238 26.837 39.056v20.21c0 17.818-11.144 33.024-26.837 39.056 4.658 1.79 9.712 2.781 15 2.781 23.106 0 41.837-18.731 41.837-41.837v-20.21c0-23.106-18.731-41.837-41.837-41.837z" fill="#e53950"/><path d="m175.708 251.564h160.115v39.255h-160.115z" fill="#fec165"/><path d="m305.823 251.564h30v39.255h-30z" fill="#fdb441"/><circle cx="255.766" cy="271.191" fill="#fee8c7" r="32.205"/><path d="m255.766 238.986c-5.418 0-10.519 1.344-15 3.707 10.229 5.395 17.205 16.129 17.205 28.498s-6.976 23.102-17.205 28.498c4.481 2.363 9.582 3.707 15 3.707 17.786 0 32.205-14.419 32.205-32.205s-14.419-32.205-32.205-32.205z" fill="#fedba6"/><path d="m294.919 461.601c0 9.729-7.887 17.616-17.616 17.616h-29.695c-11.117 0-31.557-12.091-40.412-17.681-2.661-1.68-4.277-4.601-4.277-7.747v-1.649c0-1.614 1.308-2.922 2.922-2.922h89.078z" fill="#fec165"/><path d="m264.919 449.217v12.384c0 9.689-7.823 17.545-17.496 17.61.061.001.125.006.185.006h29.695c9.729 0 17.616-7.887 17.616-17.616v-12.384z" fill="#fdb441"/><path d="m270.176 128.499h-28.821c-9.63 0-17.436-7.806-17.436-17.436 0-9.63 7.806-17.436 17.436-17.436h28.821c9.63 0 17.436 7.806 17.436 17.436 0 9.63-7.807 17.436-17.436 17.436z" fill="#fee8c7"/><path d="m270.176 93.627h-28.82c-.199 0-.392.023-.59.03 9.354.313 16.846 7.976 16.846 17.406 0 9.43-7.492 17.092-16.846 17.406.198.007.391.03.59.03h28.82c9.63 0 17.436-7.806 17.436-17.436 0-9.63-7.807-17.436-17.436-17.436z" fill="#fedba6"/><g><path d="m421.967 274.985c-.485-.719-.688-1.582-.555-2.373 13.435-79.962-4.714-125.247-13.436-147.011-1.221-3.046-2.275-5.677-3.024-7.837l-.883-2.56c-10.728-31.157-20.028-58.142-98.967-65.307v-.882c-2.489-65.379-96.209-65.329-98.674 0v.884c-60.915 5.521-80.979 22.863-92.053 47.129-1.72 3.768-.059 8.217 3.71 9.937 19.414 5.899-2.093-34.741 88.343-42.004v4.266c0 11.937 4.224 23.219 11.943 32.167-7.065 15.853 5.527 34.989 22.983 34.606h28.82c17.458.384 30.047-18.755 22.984-34.605 7.719-8.947 11.943-20.231 11.943-32.167v-4.268c31.137 2.927 51.586 9.027 64.074 19.073 11.472 9.229 15.549 21.068 20.71 36.058l.893 2.587c.866 2.499 1.981 5.282 3.273 8.506 8.843 22.065 25.304 63.139 12.567 138.941-.778 4.619.26 9.332 2.927 13.273 8.967 12.84 10.028 35.662-8.354 37.333-8.081 1.204-14.297-.013-18.47-3.61-6.72-5.736-7.46-17.55-3.664-26.319 1.97-4.978 1.727-10.514-.673-15.198-3.406-6.632-8.481-17.107-13.314-29.345-9.852-24.98-14.83-47-14.796-65.453 6.349-7.776 8.703-14.835 8.833-15.236 1.278-3.94-.872-8.193-4.812-9.472-3.94-1.277-8.163.857-9.441 4.797-.524 1.546-13.452 37.701-67.023 21.935-3.971-1.17-8.143 1.104-9.312 5.078s1.104 8.143 5.078 9.312c20.228 6.206 42.274 6.494 58.395-1.812-1.655 10.618-3.306 26.51-3.616 48.661h-43.304c-.112 0-.222.012-.333.017-14.906-16.667-43.083-16.65-57.971.023-.254-.026-.512-.04-.773-.04h-42.842c-.31-22.151-1.961-38.043-3.616-48.661 16.144 8.307 38.143 8.016 58.395 1.811 3.974-1.17 6.247-5.339 5.078-9.312-1.17-3.974-5.338-6.249-9.312-5.078-53.486 15.742-66.462-20.282-67.021-21.928-1.294-3.916-5.514-6.055-9.436-4.78-3.94 1.278-6.098 5.508-4.819 9.448.13.4 2.485 7.459 8.833 15.236.052 36.075-19.639 78.309-28.116 94.805-2.385 4.656-2.631 10.185-.671 15.182 1.507 3.821 2.337 7.744 2.337 11.048 0 11.881-4.228 17.354-14.594 18.892-8.075 1.199-14.282-.013-18.449-3.606-8.985-8.058-6.86-23.654.224-33.732 2.665-3.937 3.703-8.649 2.926-13.265-12.611-75.062 3.824-116.797 10.843-134.619 1.518-3.854-.376-8.209-4.23-9.727-3.856-1.521-8.21.376-9.727 4.23-11.63 29.533-23.468 72.431-11.678 142.604.133.788-.07 1.651-.554 2.365-11.431 16.135-12.56 40.811 2.401 53.504 5.791 5.601 18.545 9.281 30.448 7.083 21.125-2.041 34.065-23.848 24.012-50.267-.386-.982-.362-2.022.059-2.845 6.272-12.208 14.933-30.863 21.296-51.606.267 6.218.424 59.631.424 59.631-1.61 14.086 3.668 25.081 8.347 34.791 5.54 11.501 9.544 19.811 2.989 31.58-4.373 7.859-9.543 13.391-14.543 18.741-8.846 9.466-17.993 19.253-17.993 38.646 0 20.089 5.757 34.774 17.111 43.648 12.158 9.081 24.856 9.652 36.682 8.157.734.673 1.531 1.289 2.394 1.834 13.614 8.595 32.372 18.839 44.415 18.839h6.964v9.962h-19.885c-9.916.307-9.909 14.697 0 15h54.77c9.916-.307 9.909-14.697 0-15h-19.885v-9.962h7.731c10.021 0 18.686-5.9 22.713-14.407 17.714 11.886 42.713-1.616 42.403-23.093-.701-31.983-44.79-37.764-53.951-7.5h-82.626c-2.531 0-4.854.909-6.661 2.415-2.341-3.557-3.17-7.017-2.454-10.345 2.468-11.469 24.065-28.583 77.281-42.224 4.013-1.028 6.432-5.114 5.402-9.127-1.027-4.012-5.109-6.425-9.127-5.403-37.027 9.491-82.389 26.494-88.221 53.599-1.157 5.379-.992 12.616 3.877 20.606-4.242-.664-8.777-2.168-12.659-5.228-7.481-5.896-11.274-16.587-11.274-31.772 0-13.475 5.551-19.414 13.952-28.404 5.354-5.729 11.424-12.224 16.69-21.686 10.339-18.566 3.475-32.815-2.582-45.388-3.26-6.766-6.38-13.241-7.037-20.442h42.967c.262 0 .521-.014.776-.04 14.892 16.673 43.064 16.68 57.964.023.113.005.223.017.337.017h43.632c.095 13.709-2.754 45.72-29.237 65.331-3.329 2.465-4.029 7.162-1.564 10.49 1.472 1.987 3.737 3.038 6.033 3.037 1.551 0 3.115-.479 4.457-1.473 39.747-29.433 35.583-79.375 34.932-85.319 0 0 .161-53.299.432-59.525 2.076 6.752 4.532 13.726 7.363 20.903 5.058 12.808 10.363 23.76 13.92 30.684.435.847.46 1.853.069 2.84-6.223 14.637-3.829 33.458 7.818 43.191 5.795 5.604 18.557 9.288 30.469 7.089 26.862-2.525 35.843-34.998 18.57-60.582zm-200.538-225.97c1.731-45.502 66.959-45.467 68.674 0v20.211c0 7.531-2.414 14.692-6.869 20.604-3.801-2.346-8.273-3.704-13.058-3.704h-28.82c-4.785 0-9.258 1.358-13.059 3.704-4.455-5.912-6.868-13.072-6.868-20.605zm48.747 71.984h-28.82c-13.167-.501-13.156-19.376 0-19.872h28.82c13.165.5 13.156 19.376 0 19.872zm44.744 315.718c6.893 0 12.5 5.607 12.5 12.5-.628 16.56-24.374 16.556-25 0 0-6.893 5.607-12.5 12.5-12.5zm-27.5 20v4.885c0 5.577-4.538 10.115-10.116 10.115h-29.695c-5.991 0-18.866-5.705-33.966-15zm-104.214-173.399v-24.25h34.754c-2.516 7.577-2.516 16.673.001 24.25zm72.56 12.578c-13.622 0-24.705-11.083-24.705-24.705 1.243-32.73 48.173-32.721 49.41 0 0 13.622-11.083 24.705-24.705 24.705zm37.804-12.578c2.517-7.577 2.518-16.673.001-24.25h34.754v24.25z"/><path d="m208.611 160.64v-6c-.307-9.916-14.697-9.909-15 0v6c.307 9.917 14.697 9.91 15 0z"/><path d="m317.92 160.64v-6c-.307-9.916-14.697-9.909-15 0v6c.307 9.917 14.696 9.91 15 0z"/><path d="m267.33 58.358h6c9.916-.307 9.909-14.697 0-15h-6c-9.916.307-9.909 14.697 0 15z"/><path d="m238.201 58.358h6c9.916-.307 9.909-14.697 0-15h-6c-9.916.307-9.909 14.697 0 15z"/></g></g></svg>