<svg height="512pt" viewBox="-96 0 512 512.001" width="512pt" xmlns="http://www.w3.org/2000/svg"><path d="m293.710938 481.21875 26.382812 30.78125v-101.496094c0-26.613281-15.027344-51.324218-38.285156-62.953125-7.898438-3.949219-14.113282-10.429687-17.835938-18.179687 31.109375-7.292969 51.476563-38.113282 45.066406-70.164063l-9.585937-47.9375c-6.710937-33.554687-35.515625-58.257812-69.347656-60.152343v-23.066407c19.167969-13.882812 29.996093-32.746093 29.996093-52.78125 0-21.199219-11.71875-40.738281-33-55.015625-19.46875-13.0625-45.035156-20.253906-71.992187-20.253906-26.953125 0-52.519531 7.191406-71.988281 20.253906-21.28125 14.277344-33 33.816406-33 55.015625 0 20.03125 10.828125 38.894531 29.996094 52.78125v23.066407c-33.832032 1.894531-62.636719 26.597656-69.347657 60.152343l-9.585937 47.9375c-6.710938 33.539063 15.878906 65.464844 48.9375 70.945313v15.816406c0 58.441406 47.097656 105.988281 104.988281 105.988281h73.898437c25.179688 0 48.761719 10.664063 64.703126 29.261719zm-183.59375-353.703125 44.992187-33.539063 44.996094 33.539063v29.476563l-44.996094 22.496093-44.992187-22.496093zm-10.28125-82.351563c14.574218-9.78125 34.207031-15.167968 55.273437-15.167968 21.070313 0 40.699219 5.386718 55.277344 15.167968 7.363281 4.941407 19.71875 15.421876 19.71875 30.105469 0 9.269531-5.25 18.523438-14.679688 26.25l-60.316406-44.957031-60.3125 44.957031c-9.429687-7.726562-14.679687-16.980469-14.679687-26.25 0-14.683593 12.351562-25.164062 19.71875-30.105469zm-69.238282 219.929688 9.585938-47.9375c4.191406-20.960938 22.75-36.171875 44.125-36.171875h6.710937l64.09375 32.042969 64.089844-32.042969h6.714844c21.371093 0 39.929687 15.210937 44.121093 36.171875l9.585938 47.9375c3.71875 18.578125-10.503906 35.878906-29.414062 35.878906h-20.105469v-30h29.996093v-29.996094c-43.5 0-166.011718 0-209.980468 0v29.996094h29.996094v30h-20.105469c-18.949219 0-33.125-17.339844-29.414063-35.878906zm139.511719 35.878906v-30h29.996094v30zm-29.996094-30v30h-29.996093v-30zm14.996094 150.988282c-41.347656 0-74.992187-34.089844-74.992187-75.992188v-15h152.53125c5.207031 18.632812 18.105468 34.59375 35.742187 43.414062 12.984375 6.492188 21.707031 21.007813 21.707031 36.121094v28.640625c-18.023437-11.121093-39.125-17.183593-61.089844-17.183593zm0 0"/></svg>